<svg width="52" height="52" viewBox="0 0 52 52" fill="none" xmlns="http://www.w3.org/2000/svg">
<g clip-path="url(#clip0_11318_16840)">
<path d="M9.14001 39.3626C10.3078 40.5884 11.4756 41.8202 12.6374 43.0461C9.77429 45.8926 6.91116 48.7391 4.04805 51.5857C2.83877 50.3835 1.62358 49.1752 0.414307 47.973C3.32486 45.1029 6.23541 42.2327 9.14594 39.3626H9.14001Z" fill="white"/>
<path d="M16.0169 39.3626C14.7502 40.5884 13.4835 41.8202 12.2231 43.0461C15.3289 45.8926 18.4347 48.7391 21.5405 51.5857C22.8523 50.3835 24.1703 49.1752 25.4821 47.973C22.3248 45.1029 19.1677 42.2327 16.0105 39.3626H16.0169Z" fill="white"/>
<path d="M51.9818 3.74037C50.2652 5.43835 40.7053 14.9011 38.9826 16.5991C31.4567 24.0437 17.9018 37.4522 12.404 42.8845C12.404 42.8845 8.52505 38.8239 8.51894 38.8117C8.4884 38.7877 1.06032 31.0046 1.03589 30.9744C2.1843 29.9835 3.32662 28.9986 4.47504 28.0075C7.04676 30.5453 9.60628 33.0774 12.1719 35.6152C16.961 30.8778 31.0598 16.9314 36.9851 11.0761C37.0584 11.0036 37.1378 10.9311 37.2111 10.8525C37.2905 10.774 37.37 10.7015 37.4494 10.6169C37.5287 10.5383 37.6143 10.4598 37.6936 10.3752C37.7792 10.2966 37.8585 10.212 37.9441 10.1274C37.9807 10.0912 38.0112 10.061 38.0479 10.0307C39.4774 8.61677 41.2062 6.90067 42.8493 5.2752H36.3315V0C38.7504 0 45.7631 0 48.2065 0H48.2187C49.4833 1.24478 50.7355 2.48956 52 3.74037H51.9818Z" fill="#46A8DC"/>
</g>
<defs>
<clipPath id="clip0_11318_16840">
<rect width="52" height="52" fill="white"/>
</clipPath>
</defs>
</svg>
