<svg width="51" height="20" viewBox="0 0 51 20" fill="none" xmlns="http://www.w3.org/2000/svg">
<g clip-path="url(#clip0_32946_9384)">
<path d="M27.8396 4.35938H26.876V14.9506H27.8396V4.35938Z" fill="#FF0000"/>
<path d="M40.1455 4.35938H43.2195V5.24217H42.1739V14.9506H41.2063V5.24217H40.1455V4.35938Z" fill="#FF0000"/>
<path d="M25.9955 4.35938V14.9506H24.9863L23.5435 8.51857V14.9506H22.5967V4.35938H23.4675L25.0487 11.3758V4.35938H25.9955Z" fill="#FF0000"/>
<path d="M5.04311 4.35938V14.9506H4.09631V5.87218L2.92791 14.9506H2.13951L0.989909 5.87218V14.9506H0.0371094V4.35938H1.64911L2.57231 10.7446L3.44271 4.35938H5.04311Z" fill="#FF0000"/>
<path d="M16.7793 14.9538C17.4506 14.0407 17.8555 12.9593 17.9492 11.8298C18.0428 10.7003 17.8215 9.56704 17.3098 8.5558C16.7981 7.54456 16.016 6.69499 15.0505 6.10148C14.085 5.50797 12.9739 5.19376 11.8405 5.19376C10.7072 5.19376 9.59606 5.50797 8.63056 6.10148C7.66505 6.69499 6.883 7.54456 6.3713 8.5558C5.85959 9.56704 5.63826 10.7003 5.7319 11.8298C5.82554 12.9593 6.23048 14.0407 6.90174 14.9538H8.17654C7.45993 14.2302 6.97348 13.3107 6.77844 12.3111C6.58341 11.3116 6.68853 10.2766 7.08055 9.33671C7.47256 8.39677 8.13396 7.59386 8.98142 7.02909C9.82889 6.46432 10.8245 6.16296 11.8429 6.16296C12.8614 6.16296 13.857 6.46432 14.7045 7.02909C15.5519 7.59386 16.2133 8.39677 16.6053 9.33671C16.9974 10.2766 17.1025 11.3116 16.9074 12.3111C16.7124 13.3107 16.2259 14.2302 15.5093 14.9538H16.7793Z" fill="#FF0000"/>
<path d="M46.7077 14.9506H45.7657L45.5165 12.565H44.1069L43.8789 14.9506H42.9189L44.0025 4.36017H45.4721L46.7077 14.9506ZM45.4277 11.6086L44.7877 5.76857L44.1965 11.6086H45.4285H45.4277Z" fill="#FF0000"/>
<path d="M35.199 13.6052C35.2152 13.6934 35.2118 13.7841 35.189 13.8709C35.1662 13.9576 35.1246 14.0383 35.0671 14.1072C35.0097 14.1761 34.9378 14.2316 34.8566 14.2696C34.7754 14.3076 34.6867 14.3274 34.597 14.3274C34.5073 14.3274 34.4187 14.3076 34.3375 14.2696C34.2563 14.2316 34.1844 14.1761 34.127 14.1072C34.0695 14.0383 34.0279 13.9576 34.0051 13.8709C33.9823 13.7841 33.9789 13.6934 33.995 13.6052V5.60518C33.9789 5.51695 33.9823 5.42624 34.0051 5.33948C34.0279 5.25272 34.0695 5.17204 34.127 5.10314C34.1844 5.03423 34.2563 4.9788 34.3375 4.94076C34.4187 4.90272 34.5073 4.883 34.597 4.883C34.6867 4.883 34.7754 4.90272 34.8566 4.94076C34.9378 4.9788 35.0097 5.03423 35.0671 5.10314C35.1246 5.17204 35.1662 5.25272 35.189 5.33948C35.2118 5.42624 35.2152 5.51695 35.199 5.60518L35.1966 5.98758V7.98438H36.1654V6.44558V6.00038C36.1586 4.68038 35.6422 4.05078 34.5654 4.05078C33.6054 4.05078 32.9814 4.73078 32.9814 5.77638V6.16518V12.7948V13.224C32.9814 14.5812 33.5078 15.2428 34.5882 15.2428C35.6686 15.2428 36.167 14.5932 36.167 13.196V9.34278H34.385V10.2704H35.195V13.254L35.199 13.6052Z" fill="#FF0000"/>
<path d="M39.1687 13.3518V10.5982L36.9619 8.94857V5.87097C36.9619 4.66137 37.5063 4.04297 38.5719 4.04297C39.6547 4.04297 40.1471 4.65657 40.1531 6.01657L40.1559 6.43857V8.00017H39.1687V5.90577L39.1667 5.60577C39.1835 5.51801 39.1807 5.42764 39.1585 5.34109C39.1363 5.25454 39.0953 5.17397 39.0384 5.10511C38.9814 5.03626 38.91 4.98082 38.8291 4.94277C38.7483 4.90472 38.6601 4.88499 38.5707 4.88499C38.4814 4.88499 38.3931 4.90472 38.3123 4.94277C38.2315 4.98082 38.16 5.03626 38.1031 5.10511C38.0461 5.17397 38.0051 5.25454 37.9829 5.34109C37.9607 5.42764 37.9579 5.51801 37.9747 5.60577V8.48817L40.1555 10.1358V13.3202C40.1555 14.565 39.6011 15.2318 38.5655 15.2318C37.5163 15.2318 36.9707 14.6034 36.9655 13.389V12.9702V10.8974H37.9751V13.6058C37.9583 13.6935 37.9611 13.7839 37.9833 13.8704C38.0055 13.957 38.0465 14.0376 38.1035 14.1064C38.1604 14.1753 38.2319 14.2307 38.3127 14.2688C38.3935 14.3068 38.4818 14.3265 38.5711 14.3265C38.6605 14.3265 38.7487 14.3068 38.8295 14.2688C38.9104 14.2307 38.9818 14.1753 39.0388 14.1064C39.0957 14.0376 39.1367 13.957 39.1589 13.8704C39.1811 13.7839 39.1839 13.6935 39.1671 13.6058L39.1687 13.3518Z" fill="#FF0000"/>
<path d="M22.0117 14.9506H21.0461C20.9125 14.5861 20.8461 14.2004 20.8501 13.8122L20.8421 13.2706L20.8393 12.9954V10.9278C20.8497 10.8477 20.8426 10.7663 20.8185 10.6892C20.7945 10.6121 20.754 10.5411 20.7 10.4811C20.6459 10.4211 20.5795 10.3735 20.5053 10.3416C20.4311 10.3097 20.3509 10.2942 20.2701 10.2962H19.5809V14.9506H18.6357V4.36017H19.8693C21.2549 4.36017 21.7893 4.86697 21.7893 6.22177V8.21097C21.7893 9.10217 21.6405 9.47577 20.9429 9.73297C20.9529 9.73577 20.9625 9.74017 20.9721 9.74297C21.6309 9.93497 21.7785 10.183 21.7861 11.0206L21.7893 11.4054V13.3382C21.7666 13.8846 21.842 14.4307 22.0117 14.9506ZM19.5809 5.19337V9.38777H19.9193C20.0427 9.40941 20.1694 9.40146 20.2891 9.36459C20.4088 9.32771 20.5181 9.26296 20.6079 9.17566C20.6977 9.08835 20.7655 8.98098 20.8057 8.86237C20.846 8.74376 20.8575 8.6173 20.8393 8.49337V6.33337C20.8393 5.46377 20.6393 5.19177 19.9945 5.19177H19.5809V5.19337Z" fill="#FF0000"/>
<path d="M50.3354 14.9506H49.369C49.2353 14.5861 49.169 14.2004 49.1734 13.8122L49.1654 13.2706L49.1618 12.9958V10.9278C49.1721 10.8477 49.165 10.7663 49.141 10.6893C49.117 10.6122 49.0766 10.5412 49.0225 10.4813C48.9685 10.4213 48.9021 10.3737 48.828 10.3417C48.7539 10.3098 48.6737 10.2942 48.593 10.2962H47.9046V14.9506H46.959V4.36017H48.193C49.5786 4.36017 50.113 4.86697 50.113 6.22177V8.21097C50.113 9.10217 49.9638 9.47577 49.2678 9.73297C49.277 9.73577 49.2866 9.74017 49.297 9.74297C49.9554 9.93497 50.1034 10.183 50.111 11.0206L50.1134 11.4054V13.3382C50.0903 13.8846 50.1655 14.4307 50.3354 14.9506ZM47.9046 5.19337V9.38777H48.2442C48.3674 9.40897 48.4938 9.40071 48.6132 9.36364C48.7326 9.32657 48.8415 9.26176 48.931 9.17451C49.0205 9.08726 49.0881 8.98005 49.1282 8.86166C49.1683 8.74327 49.1798 8.61706 49.1618 8.49337V6.33337C49.1618 5.46377 48.9618 5.19177 48.317 5.19177H47.9046V5.19337Z" fill="#FF0000"/>
<path d="M32.1045 4.35938V14.9506H31.0957L29.6529 8.51857V14.9506H28.7061V4.35938H29.5769L31.1577 11.3758V4.35938H32.1045Z" fill="#FF0000"/>
</g>
<defs>
<clipPath id="clip0_32946_9384">
<rect width="50.4" height="20" fill="white"/>
</clipPath>
</defs>
</svg>
