<svg width="821" height="850" viewBox="0 0 821 850" fill="none" xmlns="http://www.w3.org/2000/svg">
<path opacity="0.05" fill-rule="evenodd" clip-rule="evenodd" d="M-51.2871 106.274L220.237 -91H555.859L827.383 106.274L931.096 425.469L827.383 744.665L555.859 941.939H220.237L-51.2871 744.665L-155 425.469L-51.2871 106.274ZM388.048 -36.475L262.02 -77.4238L514.075 -77.4238L388.048 -36.475ZM366.081 -29.3375L225.423 -75.0402L138.491 44.611L366.081 -29.3375ZM144.668 56.8786L373.299 -17.4079L285.15 104.321L144.668 56.8786ZM120.688 69.114L-25.98 270.986L120.079 224.19L120.688 69.114ZM120.023 238.464L-28.5708 286.072L62.4834 411.813L119.652 332.867L120.023 238.464ZM133.302 314.016L133.616 234.109L208.551 210.1L133.302 314.016ZM119.56 356.141L70.8644 423.387L119.034 489.907L119.56 356.141ZM132.537 508.554L133.211 337.29L230.377 203.108L386.818 152.986L552.602 208.973L649.548 342.851L650.885 512.009L492.119 725.35L228.326 640.834L132.537 508.554ZM118.944 512.93L62.4834 434.961L-27.2925 558.937L118.579 605.673L118.944 512.93ZM132.138 610.017L132.447 531.577L206.5 633.841L132.138 610.017ZM118.523 619.911L-31.9834 571.69L117.902 777.989L118.523 619.911ZM131.432 789.759L132.082 624.255L219.942 652.404L377.242 869.628L131.432 789.759ZM574.79 216.467L649.363 319.448L648.746 241.443L574.79 216.467ZM648.632 227.075L561.054 197.498L502.079 116.057L647.386 69.5022L648.632 227.075ZM662.359 246.04L663.089 338.404L720.786 418.08L811.366 296.362L662.359 246.04ZM809.69 281.467L662.245 231.672L661.021 76.8409L809.69 281.467ZM538.866 190.005L408.592 146.01L488.474 120.416L538.866 190.005ZM386.93 138.694L480.095 108.845L389.366 -16.4479L298.618 108.87L386.93 138.694ZM276.812 115.835L221.993 191.538L133.672 219.835L134.27 67.6965L276.812 115.835ZM290.281 120.384L365.156 145.67L243.819 184.545L290.281 120.384ZM505.784 729.729L651.063 534.51L652.98 776.888L505.784 729.729ZM664.497 516.458L666.475 766.592L812.18 566.045L811.518 566.524L720.636 441.021L664.497 516.458ZM663.274 361.807L664.319 493.957L712.29 429.496L663.274 361.807ZM406.243 -16.288L636.821 58.6313L493.7 104.486L406.243 -16.288ZM-37.7114 296.597V550.178L54.1024 423.387L-37.7114 296.597ZM402.572 868.42L646.646 789.115L497.218 741.24L402.572 868.42ZM483.553 736.862L389.44 863.325L241.768 659.397L483.553 736.862ZM729.132 429.605L813.807 546.538V315.823L729.132 429.605ZM116.524 51.7484L194.413 -55.457L-9.50348 92.6973L116.524 51.7484ZM-9.50342 758.242L194.414 906.396L116.524 799.19L-9.50342 758.242ZM102.948 780.504L-37.7114 586.903V734.801L102.948 780.504ZM-51.2876 568.217V700.73L-129.177 461.012L-51.2876 568.217ZM-51.2876 305.819L-138.219 425.469L-51.2876 545.12V305.819ZM-51.2876 282.721L-129.177 389.926L-51.2876 150.209V282.721ZM-37.7114 264.035V116.137L102.948 70.4345L-37.7114 264.035ZM138.491 806.328L225.423 925.979L366.081 880.276L138.491 806.328ZM388.048 887.414L262.02 928.363H514.075L388.048 887.414ZM581.681 906.397L785.6 758.241L659.571 799.19L581.681 906.397ZM637.605 806.328L410.014 880.276L550.673 925.979L637.605 806.328ZM673.148 780.504L813.807 734.801V586.903L673.148 780.504ZM827.383 568.217V700.731L905.273 461.011L827.383 568.217ZM905.273 389.928L827.383 150.207V282.721L905.273 389.928ZM827.383 545.12L914.314 425.469L827.383 305.819V545.12ZM813.807 264.035V116.137L673.148 70.4345L813.807 264.035ZM659.571 51.7484L785.6 92.6976L581.681 -55.4579L659.571 51.7484ZM637.605 44.611L410.014 -29.3375L550.673 -75.0402L637.605 44.611Z" fill="url(#paint0_radial_10414_56152)"/>
<defs>
<radialGradient id="paint0_radial_10414_56152" cx="0" cy="0" r="1" gradientUnits="userSpaceOnUse" gradientTransform="translate(402.942 419.994) rotate(57.1886) scale(613.826 645.415)">
<stop stop-color="white"/>
<stop offset="1" stop-color="white" stop-opacity="0"/>
</radialGradient>
</defs>
</svg>
